<svg width="128" height="128" viewBox="0 0 128 128" xmlns="http://www.w3.org/2000/svg">
  <defs>
    <linearGradient id="brainGradient" x1="0%" y1="0%" x2="100%" y2="100%">
      <stop offset="0%" style="stop-color:#667eea" />
      <stop offset="100%" style="stop-color:#764ba2" />
    </linearGradient>
  </defs>
  
  <circle cx="64" cy="64" r="60" fill="url(#brainGradient)" />
  
  <path d="M 40 50 
           Q 35 45, 35 55 
           Q 30 65, 35 75 
           Q 40 85, 50 85
           L 50 85
           Q 55 80, 55 75
           Q 60 65, 55 55
           Q 50 45, 40 50
           Z" 
        fill="white" opacity="0.9"/>
        
  <path d="M 88 50 
           Q 93 45, 93 55 
           Q 98 65, 93 75 
           Q 88 85, 78 85
           L 68 85
           Q 63 80, 73 75
           Q 68 65, 68 55
           Q 78 45, 88 50
           Z" 
        fill="white" opacity="0.9"/>
        
  <circle cx="64" cy="64" r="8" fill="white" opacity="0.3" />
  
  <text x="64" y="72" text-anchor="middle" font-size="32" font-weight="bold" fill="white" font-family="Arial, sans-serif">
    AI
  </text>
</svg>
